<svg width="2291" height="770" xmlns="http://www.w3.org/2000/svg" xmlns:xlink="http://www.w3.org/1999/xlink" xml:space="preserve" overflow="hidden"><defs><linearGradient x1="4079.15" y1="2360.35" x2="4079.15" y2="2951.79" gradientUnits="userSpaceOnUse" spreadMethod="reflect" id="fill0"><stop offset="0" stop-color="#F0F8FD" stop-opacity="1"/><stop offset="0.45" stop-color="#74C4E9" stop-opacity="1"/><stop offset="0.74" stop-color="#FFFF00" stop-opacity="1"/><stop offset="1" stop-color="#A2D8F0" stop-opacity="1"/></linearGradient><linearGradient x1="2403.6" y1="2375.06" x2="2403.6" y2="2966.5" gradientUnits="userSpaceOnUse" spreadMethod="reflect" id="fill1"><stop offset="0" stop-color="#F0F8FD" stop-opacity="1"/><stop offset="0.45" stop-color="#74C4E9" stop-opacity="1"/><stop offset="0.74" stop-color="#FFFF00" stop-opacity="1"/><stop offset="1" stop-color="#A2D8F0" stop-opacity="1"/></linearGradient><linearGradient x1="3226.99" y1="2375.06" x2="3226.99" y2="2966.5" gradientUnits="userSpaceOnUse" spreadMethod="reflect" id="fill2"><stop offset="0" stop-color="#F0F8FD" stop-opacity="1"/><stop offset="0.45" stop-color="#74C4E9" stop-opacity="1"/><stop offset="0.74" stop-color="#FFFF00" stop-opacity="1"/><stop offset="1" stop-color="#A2D8F0" stop-opacity="1"/></linearGradient><linearGradient x1="2678.23" y1="2375.06" x2="2678.23" y2="2966.5" gradientUnits="userSpaceOnUse" spreadMethod="reflect" id="fill3"><stop offset="0" stop-color="#F0F8FD" stop-opacity="1"/><stop offset="0.45" stop-color="#74C4E9" stop-opacity="1"/><stop offset="0.74" stop-color="#FFFF00" stop-opacity="1"/><stop offset="1" stop-color="#A2D8F0" stop-opacity="1"/></linearGradient><linearGradient x1="3753.35" y1="2367.7" x2="3753.35" y2="2959.14" gradientUnits="userSpaceOnUse" spreadMethod="reflect" id="fill4"><stop offset="0" stop-color="#F0F8FD" stop-opacity="1"/><stop offset="0.45" stop-color="#74C4E9" stop-opacity="1"/><stop offset="0.74" stop-color="#FFFF00" stop-opacity="1"/><stop offset="1" stop-color="#A2D8F0" stop-opacity="1"/></linearGradient></defs><g transform="translate(-536 -417)"><g><g><g><g><path d="M3884.06 2457.2 4156.95 2717.11 4156.95 2522.18 4234.92 2522.18 4234.92 2912.04 3962.03 2643.47 3962.03 2860.06 3884.06 2860.06Z" stroke="#000000" stroke-width="20.5361" stroke-linecap="butt" stroke-linejoin="round" stroke-miterlimit="10" stroke-opacity="1" fill="url(#fill0)" fill-rule="evenodd" transform="matrix(1.00444 0 0 1 -1615.74 -1915.27)"/><path d="M2216.64 2527.26 2304.72 2527.26 2304.72 2787.17 2483.91 2787.17 2551.63 2874.77 2216.64 2874.77Z" stroke="#000000" stroke-width="20.5361" stroke-linecap="butt" stroke-linejoin="round" stroke-miterlimit="10" stroke-opacity="1" fill="url(#fill1)" fill-rule="evenodd" transform="matrix(1.00444 0 0 1 -1615.74 -1915.27)"/><path d="M3564.89 2471.91 3564.89 2588.87 3456.57 2701.5 3564.89 2809.8 3512.9 2874.77 3399.3 2761.18 3226.99 2939.75 3226.99 2822.79 3341.55 2703.43 3239.99 2601.87 3291.97 2536.89 3399.3 2644.22ZM3188.38 2471.91 3188.38 2588.87 3080.08 2701.5 3188.38 2809.8 3136.4 2874.77 3022.81 2761.18 2850.5 2939.75 2850.5 2822.79 2965.05 2703.43 2863.49 2601.87 2915.48 2536.89 3022.81 2644.22Z" stroke="#000000" stroke-width="20.5361" stroke-linecap="butt" stroke-linejoin="round" stroke-miterlimit="10" stroke-opacity="1" fill="url(#fill2)" fill-rule="evenodd" transform="matrix(1.00444 0 0 1 -1615.74 -1915.27)"/><path d="M2491.27 2527.26 2826.27 2527.26 2758.6 2614.86 2579.35 2614.86 2579.35 2657.22 2826.27 2657.22 2758.6 2744.82 2579.35 2744.82 2579.35 2787.17 2826.27 2787.17 2758.6 2874.77 2491.27 2874.77Z" stroke="#000000" stroke-width="20.5361" stroke-linecap="butt" stroke-linejoin="round" stroke-miterlimit="10" stroke-opacity="1" fill="url(#fill3)" fill-rule="evenodd" transform="matrix(1.00444 0 0 1 -1615.74 -1915.27)"/><path d="M3733.73 2568.52 3603.78 2698.48 3733.73 2828.43 3863.69 2698.48ZM3733.73 2451.56 3980.65 2698.48 3733.73 2945.39 3486.82 2698.48Z" stroke="#000000" stroke-width="20.5361" stroke-linecap="butt" stroke-linejoin="round" stroke-miterlimit="10" stroke-opacity="1" fill="url(#fill4)" fill-rule="evenodd" transform="matrix(1.00444 0 0 1 -1615.74 -1915.27)"/></g></g></g><text fill="#000000" fill-opacity="1" font-family="Bauhaus 93,Bauhaus 93_MSFontService,sans-serif" font-style="normal" font-variant="normal" font-weight="400" font-stretch="normal" font-size="83" text-anchor="start" direction="ltr" writing-mode="lr-tb" unicode-bidi="normal" text-decoration="none" transform="matrix(1 0 0 1 590.432 1117)">Learning Strongs Lexicons with 80s vibes </text></g></g></svg>